<svg xmlns="http://www.w3.org/2000/svg" width="38" height="38" viewBox="0 0 38 38" fill="none">
  <path fill-rule="evenodd" clip-rule="evenodd"
    d="M18.9997 4.74998C11.1296 4.74998 4.74967 11.1299 4.74967 19C4.74967 26.87 11.1296 33.25 18.9997 33.25C26.8697 33.25 33.2497 26.87 33.2497 19C33.2497 11.1299 26.8697 4.74998 18.9997 4.74998ZM1.58301 19C1.58301 9.38102 9.38071 1.58331 18.9997 1.58331C28.6186 1.58331 36.4163 9.38102 36.4163 19C36.4163 28.6189 28.6186 36.4166 18.9997 36.4166C9.38071 36.4166 1.58301 28.6189 1.58301 19Z"
    fill="#F8F8F8" />
  <path fill-rule="evenodd" clip-rule="evenodd"
    d="M19.0003 7.91669C19.8748 7.91669 20.5837 8.62557 20.5837 9.50002V18.0215L26.0417 20.7505C26.8239 21.1416 27.1409 22.0926 26.7498 22.8748C26.3588 23.6569 25.4077 23.9739 24.6256 23.5829L18.2922 20.4162C17.7558 20.148 17.417 19.5997 17.417 19V9.50002C17.417 8.62557 18.1259 7.91669 19.0003 7.91669Z"
    fill="#F8F8F8" />
</svg>