<svg width="38" height="38" viewBox="0 0 38 38" fill="none" xmlns="http://www.w3.org/2000/svg">
<path fill-rule="evenodd" clip-rule="evenodd" d="M18.9062 2.34063C9.24903 2.34063 2.34063 9.24903 2.34063 18.9062C2.34063 28.5635 9.24903 35.4719 18.9062 35.4719C28.5635 35.4719 35.4719 28.5635 35.4719 18.9062C35.4719 9.24903 28.5635 2.34063 18.9062 2.34063ZM0.5 18.9062C0.5 8.23248 8.23248 0.5 18.9062 0.5C29.58 0.5 37.3125 8.23248 37.3125 18.9062C37.3125 29.58 29.58 37.3125 18.9062 37.3125C8.23248 37.3125 0.5 29.58 0.5 18.9062Z" fill="white" stroke="white"/>
<path fill-rule="evenodd" clip-rule="evenodd" d="M17.7135 10.6674C17.4403 10.6861 17.3128 10.7192 17.2325 10.7525C16.8952 10.8922 16.6273 11.1602 16.4876 11.4974C16.4543 11.5778 16.4212 11.7052 16.4025 11.9784C16.3833 12.2599 16.3828 12.6242 16.3828 13.1712V15.3551C16.3828 15.3559 16.3847 15.4478 16.3726 15.5378C16.3569 15.6545 16.3049 15.891 16.0979 16.0979C15.891 16.3049 15.6545 16.3569 15.5378 16.3726C15.4478 16.3847 15.3559 16.3828 15.3551 16.3828H13.1712C12.6242 16.3828 12.2599 16.3833 11.9784 16.4025C11.7052 16.4212 11.5778 16.4543 11.4974 16.4876C11.1602 16.6273 10.8922 16.8952 10.7525 17.2325C10.7192 17.3128 10.6861 17.4403 10.6674 17.7135C10.6482 17.995 10.6477 18.3593 10.6477 18.9062C10.6477 19.4532 10.6482 19.8175 10.6674 20.099C10.6861 20.3722 10.7192 20.4997 10.7525 20.58C10.8922 20.9173 11.1602 21.1852 11.4974 21.3249C11.5778 21.3582 11.7052 21.3913 11.9784 21.41C12.2599 21.4292 12.6242 21.4297 13.1712 21.4297H15.3551C15.3551 21.4297 15.4474 21.4277 15.5378 21.4399C15.6545 21.4556 15.891 21.5076 16.0979 21.7146C16.3049 21.9215 16.3569 22.158 16.3726 22.2747C16.3848 22.3651 16.3828 22.4574 16.3828 22.4574V24.6413C16.3828 25.1883 16.3833 25.5526 16.4025 25.8341C16.4212 26.1073 16.4543 26.2347 16.4876 26.3151C16.6273 26.6523 16.8952 26.9203 17.2325 27.06C17.3128 27.0933 17.4403 27.1264 17.7135 27.1451C17.995 27.1643 18.3593 27.1648 18.9062 27.1648C19.4532 27.1648 19.8175 27.1643 20.099 27.1451C20.3722 27.1264 20.4997 27.0933 20.58 27.06C20.9173 26.9203 21.1852 26.6523 21.3249 26.3151C21.3582 26.2347 21.3913 26.1073 21.41 25.8341C21.4292 25.5526 21.4297 25.1883 21.4297 24.6413V22.4574C21.4297 22.4574 21.4277 22.3651 21.4399 22.2747C21.4556 22.158 21.5076 21.9215 21.7146 21.7146C21.9215 21.5076 22.158 21.4556 22.2747 21.4399C22.3651 21.4277 22.4574 21.4297 22.4574 21.4297H24.6413C25.1883 21.4297 25.5526 21.4292 25.8341 21.41C26.1073 21.3913 26.2347 21.3582 26.3151 21.3249C26.6523 21.1852 26.9203 20.9173 27.06 20.58C27.0933 20.4997 27.1264 20.3722 27.1451 20.099C27.1643 19.8175 27.1648 19.4532 27.1648 18.9062C27.1648 18.3593 27.1643 17.995 27.1451 17.7135C27.1264 17.4403 27.0933 17.3128 27.06 17.2325C26.9203 16.8952 26.6523 16.6273 26.3151 16.4876C26.2347 16.4543 26.1073 16.4212 25.8341 16.4025C25.5526 16.3833 25.1883 16.3828 24.6413 16.3828H22.4574C22.4574 16.3828 22.3651 16.3848 22.2747 16.3726C22.158 16.3569 21.9215 16.3049 21.7146 16.0979C21.5076 15.891 21.4556 15.6545 21.4399 15.5378C21.4277 15.4474 21.4297 15.3551 21.4297 15.3551V13.1712C21.4297 12.6242 21.4292 12.2599 21.41 11.9784C21.3913 11.7052 21.3582 11.5778 21.3249 11.4974C21.1852 11.1602 20.9173 10.8922 20.58 10.7525C20.4997 10.7192 20.3722 10.6861 20.099 10.6674C19.8175 10.6482 19.4532 10.6477 18.9062 10.6477C18.3593 10.6477 17.995 10.6482 17.7135 10.6674ZM18.8757 8.8125H18.9368C19.4452 8.81249 19.8725 8.81248 20.2239 8.83646C20.5905 8.86147 20.9411 8.91563 21.2823 9.05697C22.0693 9.38294 22.6945 10.0082 23.0204 10.7951C23.1618 11.1363 23.2159 11.4869 23.241 11.8535C23.2649 12.2049 23.2649 12.6322 23.2649 13.1406V14.5476H24.6719C25.1803 14.5476 25.6076 14.5476 25.959 14.5715C26.3256 14.5966 26.6762 14.6507 27.0174 14.7921C27.8043 15.118 28.4296 15.7432 28.7555 16.5302C28.8969 16.8714 28.951 17.222 28.976 17.5886C29 17.94 29 18.3673 29 18.8757V18.9368C29 19.4452 29 19.8725 28.976 20.2239C28.951 20.5905 28.8969 20.9411 28.7555 21.2823C28.4296 22.0693 27.8043 22.6945 27.0174 23.0204C26.6762 23.1618 26.3256 23.2159 25.959 23.241C25.6076 23.2649 25.1803 23.2649 24.6719 23.2649H23.2649V24.6719C23.2649 25.1803 23.2649 25.6076 23.241 25.959C23.2159 26.3256 23.1618 26.6762 23.0204 27.0174C22.6945 27.8043 22.0693 28.4296 21.2823 28.7555C20.9411 28.8969 20.5905 28.951 20.2239 28.976C19.8725 29 19.4452 29 18.9368 29H18.8757C18.3673 29 17.94 29 17.5886 28.976C17.222 28.951 16.8714 28.8969 16.5302 28.7555C15.7432 28.4296 15.118 27.8043 14.7921 27.0174C14.6507 26.6762 14.5966 26.3256 14.5715 25.959C14.5476 25.6076 14.5476 25.1803 14.5476 24.6719V23.2649H13.1406C12.6322 23.2649 12.2049 23.2649 11.8535 23.241C11.4869 23.2159 11.1363 23.1618 10.7951 23.0204C10.0082 22.6945 9.38294 22.0693 9.05697 21.2823C8.91563 20.9411 8.86147 20.5905 8.83646 20.2239C8.81248 19.8725 8.81249 19.4452 8.8125 18.9368V18.8757C8.81249 18.3673 8.81248 17.94 8.83646 17.5886C8.86147 17.222 8.91563 16.8714 9.05697 16.5302C9.38294 15.7432 10.0082 15.118 10.7951 14.7921C11.1363 14.6507 11.4869 14.5966 11.8535 14.5715C12.2049 14.5476 12.6322 14.5476 13.1406 14.5476H14.5476V13.1406C14.5476 12.6322 14.5476 12.2049 14.5715 11.8535C14.5966 11.4869 14.6507 11.1363 14.7921 10.7951C15.118 10.0082 15.7432 9.38294 16.5302 9.05697C16.8714 8.91563 17.222 8.86147 17.5886 8.83646C17.94 8.81248 18.3673 8.81249 18.8757 8.8125Z" fill="white"/>
<path d="M10.7951 14.7921C10.0082 15.118 9.38294 15.7432 9.05697 16.5302C8.91563 16.8714 8.86147 17.222 8.83646 17.5886C8.81248 17.94 8.81249 18.3673 8.8125 18.8757V18.9368C8.81249 19.4452 8.81248 19.8725 8.83646 20.2239C8.86147 20.5905 8.91563 20.9411 9.05697 21.2823C9.38294 22.0693 10.0082 22.6945 10.7951 23.0204C11.1363 23.1618 11.4869 23.2159 11.8535 23.241C12.2049 23.2649 12.6322 23.2649 13.1406 23.2649H14.5476V24.6719C14.5476 25.1803 14.5476 25.6076 14.5715 25.959C14.5966 26.3256 14.6507 26.6762 14.7921 27.0174C15.118 27.8043 15.7432 28.4296 16.5302 28.7555C16.8714 28.8969 17.222 28.951 17.5886 28.976C17.94 29 18.3673 29 18.8757 29H18.9368C19.4452 29 19.8725 29 20.2239 28.976C20.5905 28.951 20.9411 28.8969 21.2823 28.7555C22.0693 28.4296 22.6945 27.8043 23.0204 27.0174C23.1618 26.6762 23.2159 26.3256 23.241 25.959C23.2649 25.6076 23.2649 25.1803 23.2649 24.6719V23.2649H24.6719C25.1803 23.2649 25.6076 23.2649 25.959 23.241C26.3256 23.2159 26.6762 23.1618 27.0174 23.0204C27.8043 22.6945 28.4296 22.0693 28.7555 21.2823C28.8969 20.9411 28.951 20.5905 28.976 20.2239C29 19.8725 29 19.4452 29 18.9368V18.8757C29 18.3673 29 17.94 28.976 17.5886C28.951 17.222 28.8969 16.8714 28.7555 16.5302C28.4296 15.7432 27.8043 15.118 27.0174 14.7921C26.6762 14.6507 26.3256 14.5966 25.959 14.5715C25.6076 14.5476 25.1803 14.5476 24.6719 14.5476H23.2649V13.1406C23.2649 12.6322 23.2649 12.2049 23.241 11.8535C23.2159 11.4869 23.1618 11.1363 23.0204 10.7951C22.6945 10.0082 22.0693 9.38294 21.2823 9.05697C20.9411 8.91563 20.5905 8.86147 20.2239 8.83646C19.8725 8.81248 19.4452 8.81249 18.9368 8.8125H18.8757C18.3673 8.81249 17.94 8.81248 17.5886 8.83646C17.222 8.86147 16.8714 8.91563 16.5302 9.05697M10.7951 14.7921L11.1463 15.6398M10.7951 14.7921C11.1363 14.6507 11.4869 14.5966 11.8535 14.5715C12.2049 14.5476 12.6322 14.5476 13.1406 14.5476H14.5476V13.1406C14.5476 12.6322 14.5476 12.2049 14.5715 11.8535C14.5966 11.4869 14.6507 11.1363 14.7921 10.7951M14.7921 10.7951L15.6398 11.1463M14.7921 10.7951C15.118 10.0082 15.7432 9.38294 16.5302 9.05697M16.5302 9.05697L16.8813 9.90474M17.2325 10.7525C17.3128 10.7192 17.4403 10.6861 17.7135 10.6674C17.995 10.6482 18.3593 10.6477 18.9063 10.6477C19.4532 10.6477 19.8175 10.6482 20.099 10.6674C20.3722 10.6861 20.4997 10.7192 20.58 10.7525C20.9173 10.8922 21.1852 11.1602 21.3249 11.4974C21.3582 11.5778 21.3913 11.7052 21.41 11.9784C21.4292 12.2599 21.4297 12.6242 21.4297 13.1712V15.3551C21.4297 15.3551 21.4277 15.4474 21.4399 15.5378C21.4556 15.6545 21.5076 15.891 21.7146 16.0979C21.9215 16.3049 22.158 16.3569 22.2747 16.3726C22.3651 16.3848 22.4574 16.3828 22.4574 16.3828H24.6413C25.1883 16.3828 25.5526 16.3833 25.8341 16.4025C26.1073 16.4212 26.2347 16.4543 26.3151 16.4876C26.6523 16.6273 26.9203 16.8952 27.06 17.2325C27.0933 17.3128 27.1264 17.4403 27.1451 17.7135C27.1643 17.995 27.1648 18.3593 27.1648 18.9063C27.1648 19.4532 27.1643 19.8175 27.1451 20.099C27.1264 20.3722 27.0933 20.4997 27.06 20.58C26.9203 20.9173 26.6523 21.1852 26.3151 21.3249C26.2347 21.3582 26.1073 21.3913 25.8341 21.41C25.5526 21.4292 25.1883 21.4297 24.6413 21.4297H22.4574C22.4574 21.4297 22.3651 21.4277 22.2747 21.4399C22.158 21.4556 21.9215 21.5076 21.7146 21.7146C21.5076 21.9215 21.4556 22.158 21.4399 22.2747C21.4277 22.3651 21.4297 22.4574 21.4297 22.4574V24.6413C21.4297 25.1883 21.4292 25.5526 21.41 25.8341C21.3913 26.1073 21.3582 26.2347 21.3249 26.3151C21.1852 26.6523 20.9173 26.9203 20.58 27.06C20.4997 27.0933 20.3722 27.1264 20.099 27.1451C19.8175 27.1643 19.4532 27.1648 18.9063 27.1648C18.3593 27.1648 17.995 27.1643 17.7135 27.1451C17.4403 27.1264 17.3128 27.0933 17.2325 27.06C16.8952 26.9203 16.6273 26.6523 16.4876 26.3151C16.4543 26.2347 16.4212 26.1073 16.4025 25.8341C16.3833 25.5526 16.3828 25.1883 16.3828 24.6413V22.4574C16.3828 22.4574 16.3848 22.3651 16.3726 22.2747C16.3569 22.158 16.3049 21.9215 16.0979 21.7146C15.891 21.5076 15.6545 21.4556 15.5378 21.4399C15.4474 21.4277 15.3551 21.4297 15.3551 21.4297H13.1712C12.6242 21.4297 12.2599 21.4292 11.9784 21.41C11.7052 21.3913 11.5778 21.3582 11.4974 21.3249C11.1602 21.1852 10.8922 20.9173 10.7525 20.58C10.7192 20.4997 10.6861 20.3722 10.6674 20.099C10.6482 19.8175 10.6477 19.4532 10.6477 18.9063C10.6477 18.3593 10.6482 17.995 10.6674 17.7135C10.6861 17.4403 10.7192 17.3128 10.7525 17.2325C10.8922 16.8952 11.1602 16.6273 11.4974 16.4876C11.5778 16.4543 11.7052 16.4212 11.9784 16.4025C12.2599 16.3833 12.6242 16.3828 13.1712 16.3828H15.3551C15.3559 16.3828 15.4478 16.3847 15.5378 16.3726C15.6545 16.3569 15.891 16.3049 16.0979 16.0979C16.3049 15.891 16.3569 15.6545 16.3726 15.5378C16.3847 15.4478 16.3828 15.3559 16.3828 15.3551V13.1712C16.3828 12.6242 16.3833 12.2599 16.4025 11.9784C16.4212 11.7052 16.4543 11.5778 16.4876 11.4974C16.6273 11.1602 16.8952 10.8922 17.2325 10.7525Z" stroke="white"/>
</svg>
