<svg width="38" height="38" viewBox="0 0 38 38" fill="none" xmlns="http://www.w3.org/2000/svg">
<path fill-rule="evenodd" clip-rule="evenodd" d="M24.7994 5.97454C21.9926 4.72387 18.8566 4.41404 15.8592 5.09125C12.8619 5.76846 10.1638 7.39644 8.16723 9.73237C6.1707 12.0683 4.98275 14.987 4.78057 18.0533C4.57838 21.1195 5.37278 24.169 7.0453 26.7469C8.71781 29.3247 11.1788 31.2929 14.0613 32.3578C16.9438 33.4227 20.0933 33.5274 23.0401 32.6561C25.9869 31.7848 28.5731 29.9843 30.413 27.5231C32.2529 25.062 33.2479 22.0719 33.2497 18.999V17.5433C33.2497 16.6688 33.9586 15.9599 34.833 15.9599C35.7075 15.9599 36.4164 16.6688 36.4164 17.5433V18.9999C36.4142 22.7557 35.198 26.4111 32.9493 29.4192C30.7005 32.4273 27.5396 34.6279 23.9379 35.6928C20.3363 36.7577 16.4869 36.6298 12.9639 35.3283C9.44085 34.0267 6.43295 31.6211 4.38876 28.4704C2.34458 25.3197 1.37364 21.5926 1.62076 17.8449C1.86788 14.0973 3.31981 10.53 5.76001 7.67492C8.20021 4.81989 11.4979 2.83015 15.1614 2.00244C18.8248 1.17474 22.6576 1.55342 26.0883 3.08202C26.887 3.43792 27.246 4.37395 26.8901 5.1727C26.5342 5.97145 25.5982 6.33045 24.7994 5.97454Z" fill="white"/>
<path fill-rule="evenodd" clip-rule="evenodd" d="M35.9527 5.21319C36.5713 5.83121 36.5718 6.83372 35.9538 7.45236L20.1205 23.3015C19.8236 23.5987 19.4208 23.7657 19.0007 23.7658C18.5807 23.7659 18.1778 23.5991 17.8807 23.3021L13.1307 18.5521C12.5124 17.9338 12.5124 16.9312 13.1307 16.3129C13.7491 15.6946 14.7516 15.6946 15.3699 16.3129L18.9998 19.9428L33.7135 5.21431C34.3315 4.59567 35.334 4.59517 35.9527 5.21319Z" fill="white"/>
</svg>
