<svg width="165" height="64" viewBox="0 0 165 64" fill="none" xmlns="http://www.w3.org/2000/svg">
<g filter="url(#filter0_di_2219_18865)">
<circle cx="134" cy="27" r="12" fill="#5FD3BD"/>
</g>
<rect x="131.392" y="20.2175" width="5.21739" height="13.5652" rx="0.782609" fill="white"/>
<rect x="140.783" y="24.3913" width="5.21739" height="13.5652" rx="0.782609" transform="rotate(90 140.783 24.3913)" fill="white"/>
<path d="M7.232 55.1278V50.2318H11.584C12.672 50.2318 13.6533 50.0718 14.528 49.7518C15.4027 49.4104 16.1493 48.9411 16.768 48.3438C17.3867 47.7251 17.856 46.9891 18.176 46.1358C18.496 45.2611 18.656 44.3011 18.656 43.2558C18.656 42.1678 18.496 41.1971 18.176 40.3438C17.856 39.4904 17.3867 38.7651 16.768 38.1678C16.1493 37.5704 15.4027 37.1224 14.528 36.8238C13.6533 36.5038 12.672 36.3438 11.584 36.3438H7.232V31.4478H11.296C13.408 31.4478 15.2533 31.7571 16.832 32.3758C18.4107 32.9944 19.7333 33.8371 20.8 34.9038C21.8667 35.9704 22.656 37.1971 23.168 38.5838C23.7013 39.9491 23.968 41.3891 23.968 42.9038V43.6078C23.968 45.0158 23.7013 46.4131 23.168 47.7998C22.656 49.1651 21.8667 50.4024 20.8 51.5118C19.7333 52.5998 18.4107 53.4744 16.832 54.1358C15.2533 54.7971 13.408 55.1278 11.296 55.1278H7.232ZM2.624 55.1278V31.4478H7.872V55.1278H2.624ZM35.88 55.6078C34.344 55.6078 32.9787 55.3731 31.784 54.9038C30.5893 54.4131 29.576 53.7518 28.744 52.9198C27.9333 52.0878 27.3147 51.1384 26.888 50.0718C26.4613 48.9838 26.248 47.8424 26.248 46.6478V45.9118C26.248 44.6958 26.4613 43.5438 26.888 42.4558C27.336 41.3464 27.976 40.3758 28.808 39.5438C29.6613 38.7118 30.6853 38.0611 31.88 37.5918C33.0747 37.1011 34.408 36.8558 35.88 36.8558C37.3947 36.8558 38.7387 37.1011 39.912 37.5918C41.1067 38.0611 42.12 38.7118 42.952 39.5438C43.784 40.3758 44.424 41.3464 44.872 42.4558C45.32 43.5438 45.544 44.6958 45.544 45.9118V46.6478C45.544 47.8424 45.3307 48.9838 44.904 50.0718C44.4773 51.1384 43.848 52.0878 43.016 52.9198C42.2053 53.7518 41.2027 54.4131 40.008 54.9038C38.8133 55.3731 37.4373 55.6078 35.88 55.6078ZM35.88 51.2878C36.8827 51.2878 37.7147 51.0744 38.376 50.6478C39.0373 50.2211 39.5387 49.6238 39.88 48.8558C40.2427 48.0878 40.424 47.2344 40.424 46.2958C40.424 45.2931 40.2427 44.4184 39.88 43.6718C39.5173 42.9038 38.9947 42.2958 38.312 41.8478C37.6507 41.3998 36.84 41.1758 35.88 41.1758C34.9413 41.1758 34.1307 41.3998 33.448 41.8478C32.7653 42.2958 32.2427 42.9038 31.88 43.6718C31.5387 44.4184 31.368 45.2931 31.368 46.2958C31.368 47.2344 31.5387 48.0878 31.88 48.8558C32.2213 49.6238 32.7333 50.2211 33.416 50.6478C34.0987 51.0744 34.92 51.2878 35.88 51.2878ZM56.9893 55.6078C55.4746 55.6078 54.1519 55.3624 53.0213 54.8718C51.9119 54.3598 50.9839 53.6771 50.2373 52.8238C49.4906 51.9704 48.9359 51.0104 48.5733 49.9438C48.2106 48.8558 48.0293 47.7358 48.0293 46.5838V45.9758C48.0293 44.7811 48.2213 43.6398 48.6053 42.5518C48.9893 41.4424 49.5546 40.4611 50.3013 39.6078C51.0479 38.7544 51.9759 38.0824 53.0853 37.5918C54.2159 37.1011 55.5066 36.8558 56.9573 36.8558C58.5359 36.8558 59.9333 37.1651 61.1493 37.7838C62.3653 38.3811 63.3359 39.2238 64.0613 40.3118C64.7866 41.3998 65.1919 42.6478 65.2773 44.0558H60.2533C60.1679 43.2664 59.8479 42.6051 59.2933 42.0718C58.7599 41.5171 57.9813 41.2398 56.9573 41.2398C56.1039 41.2398 55.3893 41.4531 54.8133 41.8798C54.2586 42.3064 53.8426 42.8931 53.5653 43.6398C53.2879 44.3864 53.1493 45.2718 53.1493 46.2958C53.1493 47.2344 53.2773 48.0878 53.5333 48.8558C53.7893 49.6024 54.1946 50.1891 54.7493 50.6158C55.3253 51.0211 56.0719 51.2238 56.9893 51.2238C57.6719 51.2238 58.2479 51.1064 58.7173 50.8718C59.2079 50.6158 59.5919 50.2744 59.8693 49.8478C60.1679 49.3998 60.3493 48.8878 60.4133 48.3118H65.4053C65.3413 49.7624 64.9359 51.0424 64.1893 52.1518C63.4426 53.2398 62.4506 54.0931 61.2133 54.7118C59.9759 55.3091 58.5679 55.6078 56.9893 55.6078ZM76.6478 55.2238C74.8771 55.2238 73.4478 55.0104 72.3598 54.5838C71.2718 54.1358 70.4718 53.3998 69.9598 52.3758C69.4691 51.3304 69.2238 49.9224 69.2238 48.1518V32.7278H73.9918V48.3438C73.9918 49.1758 74.2051 49.8158 74.6318 50.2638C75.0798 50.6904 75.7091 50.9038 76.5198 50.9038H79.1118V55.2238H76.6478ZM66.5678 41.2078V37.4638H79.1118V41.2078H66.5678ZM91.0363 55.6078C89.5003 55.6078 88.1349 55.3731 86.9403 54.9038C85.7456 54.4131 84.7323 53.7518 83.9003 52.9198C83.0896 52.0878 82.4709 51.1384 82.0443 50.0718C81.6176 48.9838 81.4043 47.8424 81.4043 46.6478V45.9118C81.4043 44.6958 81.6176 43.5438 82.0443 42.4558C82.4923 41.3464 83.1323 40.3758 83.9643 39.5438C84.8176 38.7118 85.8416 38.0611 87.0363 37.5918C88.2309 37.1011 89.5643 36.8558 91.0363 36.8558C92.5509 36.8558 93.8949 37.1011 95.0683 37.5918C96.2629 38.0611 97.2763 38.7118 98.1083 39.5438C98.9403 40.3758 99.5803 41.3464 100.028 42.4558C100.476 43.5438 100.7 44.6958 100.7 45.9118V46.6478C100.7 47.8424 100.487 48.9838 100.06 50.0718C99.6336 51.1384 99.0043 52.0878 98.1723 52.9198C97.3616 53.7518 96.3589 54.4131 95.1643 54.9038C93.9696 55.3731 92.5936 55.6078 91.0363 55.6078ZM91.0363 51.2878C92.0389 51.2878 92.8709 51.0744 93.5323 50.6478C94.1936 50.2211 94.6949 49.6238 95.0363 48.8558C95.3989 48.0878 95.5803 47.2344 95.5803 46.2958C95.5803 45.2931 95.3989 44.4184 95.0363 43.6718C94.6736 42.9038 94.1509 42.2958 93.4683 41.8478C92.8069 41.3998 91.9963 41.1758 91.0363 41.1758C90.0976 41.1758 89.2869 41.3998 88.6042 41.8478C87.9216 42.2958 87.3989 42.9038 87.0363 43.6718C86.6949 44.4184 86.5243 45.2931 86.5243 46.2958C86.5243 47.2344 86.6949 48.0878 87.0363 48.8558C87.3776 49.6238 87.8896 50.2211 88.5723 50.6478C89.2549 51.0744 90.0763 51.2878 91.0363 51.2878ZM104.274 54.9998V37.4638H108.338V44.9838H108.242C108.242 42.5091 108.764 40.5998 109.81 39.2558C110.876 37.9118 112.412 37.2398 114.418 37.2398H115.09V41.6558H113.81C112.402 41.6558 111.314 42.0398 110.546 42.8078C109.778 43.5544 109.394 44.6424 109.394 46.0718V54.9998H104.274Z" fill="url(#paint0_linear_2219_18865)"/>
<defs>
<filter id="filter0_di_2219_18865" x="103" y="0" width="62" height="62" filterUnits="userSpaceOnUse" color-interpolation-filters="sRGB">
<feFlood flood-opacity="0" result="BackgroundImageFix"/>
<feColorMatrix in="SourceAlpha" type="matrix" values="0 0 0 0 0 0 0 0 0 0 0 0 0 0 0 0 0 0 127 0" result="hardAlpha"/>
<feOffset dy="4"/>
<feGaussianBlur stdDeviation="9.5"/>
<feComposite in2="hardAlpha" operator="out"/>
<feColorMatrix type="matrix" values="0 0 0 0 0.0862745 0 0 0 0 0.470588 0 0 0 0 0.94902 0 0 0 0.2 0"/>
<feBlend mode="normal" in2="BackgroundImageFix" result="effect1_dropShadow_2219_18865"/>
<feBlend mode="normal" in="SourceGraphic" in2="effect1_dropShadow_2219_18865" result="shape"/>
<feColorMatrix in="SourceAlpha" type="matrix" values="0 0 0 0 0 0 0 0 0 0 0 0 0 0 0 0 0 0 127 0" result="hardAlpha"/>
<feOffset dy="4"/>
<feGaussianBlur stdDeviation="2"/>
<feComposite in2="hardAlpha" operator="arithmetic" k2="-1" k3="1"/>
<feColorMatrix type="matrix" values="0 0 0 0 0 0 0 0 0 0 0 0 0 0 0 0 0 0 0.12 0"/>
<feBlend mode="normal" in2="shape" result="effect2_innerShadow_2219_18865"/>
</filter>
<linearGradient id="paint0_linear_2219_18865" x1="-9.02994" y1="8.31348" x2="234.005" y2="84.1421" gradientUnits="userSpaceOnUse">
<stop stop-color="#3A8EF6"/>
<stop offset="1" stop-color="#6F3AFA"/>
</linearGradient>
</defs>
</svg>
