<svg width="112" height="25" viewBox="0 0 112 25" fill="none" xmlns="http://www.w3.org/2000/svg">
<path d="M3.90412 23.648V19.424H8.73612C9.95212 19.424 11.0295 19.2427 11.9681 18.88C12.9281 18.496 13.7388 17.9627 14.4001 17.28C15.0615 16.5974 15.5628 15.7974 15.9041 14.88C16.2668 13.9414 16.4481 12.9067 16.4481 11.776C16.4481 10.6027 16.2668 9.55735 15.9041 8.64002C15.5628 7.70135 15.0615 6.90135 14.4001 6.24002C13.7388 5.57869 12.9281 5.07735 11.9681 4.73602C11.0295 4.39469 9.95212 4.22402 8.73612 4.22402H3.90412V1.90735e-05H8.44812C10.5601 1.90735e-05 12.4055 0.309352 13.9841 0.928019C15.5628 1.54668 16.8748 2.40002 17.9201 3.48802C18.9655 4.55468 19.7441 5.78135 20.2561 7.16802C20.7895 8.53335 21.0561 9.95202 21.0561 11.424V12.128C21.0561 13.536 20.7895 14.9227 20.2561 16.288C19.7441 17.6534 18.9655 18.8907 17.9201 20C16.8748 21.1094 15.5628 21.9947 13.9841 22.656C12.4055 23.3174 10.5601 23.648 8.44812 23.648H3.90412ZM0.000117302 23.648V1.90735e-05H4.54412V23.648H0.000117302ZM33.1251 24.128C31.5891 24.128 30.2345 23.8827 29.0611 23.392C27.8878 22.9014 26.8958 22.24 26.0851 21.408C25.2745 20.5547 24.6558 19.5947 24.2291 18.528C23.8238 17.4614 23.6211 16.352 23.6211 15.2V14.528C23.6211 13.3334 23.8345 12.2027 24.2611 11.136C24.7091 10.048 25.3385 9.08802 26.1491 8.25602C26.9811 7.40269 27.9838 6.74135 29.1571 6.27202C30.3305 5.78135 31.6531 5.53602 33.1251 5.53602C34.5971 5.53602 35.9198 5.78135 37.0931 6.27202C38.2665 6.74135 39.2585 7.40269 40.0691 8.25602C40.9011 9.08802 41.5305 10.048 41.9571 11.136C42.3838 12.2027 42.5971 13.3334 42.5971 14.528V15.2C42.5971 16.352 42.3838 17.4614 41.9571 18.528C41.5518 19.5947 40.9438 20.5547 40.1331 21.408C39.3225 22.24 38.3305 22.9014 37.1571 23.392C35.9838 23.8827 34.6398 24.128 33.1251 24.128ZM33.1251 20.32C34.2131 20.32 35.1305 20.0854 35.8771 19.616C36.6238 19.1254 37.1891 18.4747 37.5731 17.664C37.9571 16.832 38.1491 15.8934 38.1491 14.848C38.1491 13.7814 37.9465 12.8427 37.5411 12.032C37.1571 11.2 36.5811 10.5494 35.8131 10.08C35.0665 9.58935 34.1705 9.34402 33.1251 9.34402C32.0798 9.34402 31.1731 9.58935 30.4051 10.08C29.6585 10.5494 29.0825 11.2 28.6771 12.032C28.2718 12.8427 28.0691 13.7814 28.0691 14.848C28.0691 15.8934 28.2611 16.832 28.6451 17.664C29.0505 18.4747 29.6265 19.1254 30.3731 19.616C31.1198 20.0854 32.0371 20.32 33.1251 20.32ZM54.2039 24.128C52.6892 24.128 51.3772 23.872 50.2679 23.36C49.1799 22.848 48.2625 22.1654 47.5159 21.312C46.7905 20.4587 46.2465 19.4987 45.8839 18.432C45.5212 17.3654 45.3399 16.2774 45.3399 15.168V14.56C45.3399 13.3867 45.5212 12.2667 45.8839 11.2C46.2679 10.112 46.8332 9.15202 47.5799 8.32002C48.3265 7.46668 49.2439 6.79468 50.3319 6.30402C51.4412 5.79202 52.7212 5.53602 54.1719 5.53602C55.6865 5.53602 57.0412 5.83469 58.2359 6.43202C59.4305 7.00802 60.3799 7.81869 61.0839 8.86402C61.8092 9.90935 62.2145 11.1254 62.2999 12.512H57.9799C57.8732 11.616 57.4892 10.8694 56.8279 10.272C56.1879 9.67469 55.3025 9.37602 54.1719 9.37602C53.1905 9.37602 52.3692 9.61069 51.7079 10.08C51.0679 10.5494 50.5879 11.2 50.2679 12.032C49.9479 12.8427 49.7879 13.7814 49.7879 14.848C49.7879 15.872 49.9372 16.8 50.2359 17.632C50.5559 18.464 51.0359 19.1147 51.6759 19.584C52.3372 20.0534 53.1799 20.288 54.2039 20.288C54.9719 20.288 55.6332 20.1494 56.1879 19.872C56.7425 19.5947 57.1799 19.2107 57.4999 18.72C57.8412 18.2294 58.0545 17.6747 58.1399 17.056H62.4599C62.3745 18.464 61.9585 19.7014 61.2119 20.768C60.4865 21.8134 59.5159 22.6347 58.2999 23.232C57.1052 23.8294 55.7399 24.128 54.2039 24.128ZM73.5751 23.744C71.9751 23.744 70.6525 23.5414 69.6071 23.136C68.5831 22.7094 67.8151 22.0054 67.3031 21.024C66.7911 20.0214 66.5351 18.6774 66.5351 16.992L66.5671 1.24802H70.7271L70.6951 17.28C70.6951 18.1334 70.9191 18.7947 71.3671 19.264C71.8365 19.712 72.4978 19.936 73.3511 19.936H76.0711V23.744H73.5751ZM63.7831 9.40802V6.14402H76.0711V9.40802H63.7831ZM88.0626 24.128C86.5266 24.128 85.172 23.8827 83.9986 23.392C82.8253 22.9014 81.8333 22.24 81.0226 21.408C80.212 20.5547 79.5933 19.5947 79.1666 18.528C78.7613 17.4614 78.5586 16.352 78.5586 15.2V14.528C78.5586 13.3334 78.772 12.2027 79.1986 11.136C79.6466 10.048 80.276 9.08802 81.0866 8.25602C81.9186 7.40269 82.9213 6.74135 84.0946 6.27202C85.268 5.78135 86.5906 5.53602 88.0626 5.53602C89.5346 5.53602 90.8573 5.78135 92.0306 6.27202C93.204 6.74135 94.196 7.40269 95.0066 8.25602C95.8386 9.08802 96.468 10.048 96.8946 11.136C97.3213 12.2027 97.5346 13.3334 97.5346 14.528V15.2C97.5346 16.352 97.3213 17.4614 96.8946 18.528C96.4893 19.5947 95.8813 20.5547 95.0706 21.408C94.26 22.24 93.268 22.9014 92.0946 23.392C90.9213 23.8827 89.5773 24.128 88.0626 24.128ZM88.0626 20.32C89.1506 20.32 90.068 20.0854 90.8146 19.616C91.5613 19.1254 92.1266 18.4747 92.5106 17.664C92.8946 16.832 93.0866 15.8934 93.0866 14.848C93.0866 13.7814 92.884 12.8427 92.4786 12.032C92.0946 11.2 91.5186 10.5494 90.7506 10.08C90.004 9.58935 89.108 9.34402 88.0626 9.34402C87.0173 9.34402 86.1106 9.58935 85.3426 10.08C84.596 10.5494 84.02 11.2 83.6146 12.032C83.2093 12.8427 83.0066 13.7814 83.0066 14.848C83.0066 15.8934 83.1986 16.832 83.5826 17.664C83.988 18.4747 84.564 19.1254 85.3106 19.616C86.0573 20.0854 86.9746 20.32 88.0626 20.32ZM101.429 23.52V6.14402H104.949V13.504H104.853C104.853 11.008 105.387 9.12002 106.453 7.84002C107.52 6.56002 109.088 5.92002 111.157 5.92002H111.797V9.79202H110.581C109.088 9.79202 107.925 10.1974 107.093 11.008C106.283 11.7974 105.877 12.9494 105.877 14.464V23.52H101.429Z" fill="white"/>
</svg>
