<svg width="32" height="32" viewBox="0 0 32 32" fill="none" xmlns="http://www.w3.org/2000/svg">
<path d="M18.6667 12.4V16.2667H22.1333C22.4 16.2667 22.5333 16.5333 22.5333 16.8L22 19.3333C22 19.4667 21.7333 19.6 21.6 19.6H18.6667V29.3333H14.6667V19.7333H12.4C12.1333 19.7333 12 19.6 12 19.3333V16.8C12 16.5333 12.1333 16.4 12.4 16.4H14.6667V12C14.6667 9.73333 16.4 8 18.6667 8H22.2667C22.5333 8 22.6667 8.13333 22.6667 8.4V11.6C22.6667 11.8667 22.5333 12 22.2667 12H19.0667C18.8 12 18.6667 12.1333 18.6667 12.4Z" stroke="white" stroke-width="1.5" stroke-miterlimit="10" stroke-linecap="round"/>
<path d="M20.0003 29.3332H12.0003C5.33366 29.3332 2.66699 26.6665 2.66699 19.9998V11.9998C2.66699 5.33317 5.33366 2.6665 12.0003 2.6665H20.0003C26.667 2.6665 29.3337 5.33317 29.3337 11.9998V19.9998C29.3337 26.6665 26.667 29.3332 20.0003 29.3332Z" stroke="white" stroke-width="1.5" stroke-linecap="round" stroke-linejoin="round"/>
</svg>
